<?xml version="1.0" encoding="UTF-8"?>
<svg id="Layer_1" data-name="Layer 1" xmlns="http://www.w3.org/2000/svg" viewBox="0 0 2000 2000">
  <defs>
    <style>
      .cls-1 {
        fill: #00c853;
      }

      .cls-2 {
        fill: #112e4f;
      }
    </style>
  </defs>
  <polygon class="cls-1" points="1216.38 1156.16 1270.48 1124.93 1270.49 1124.93 1270.49 875.06 1216.38 843.83 1162.29 812.6 1108.19 781.37 1054.1 750.14 1000.01 718.9 999.99 718.9 945.9 750.14 891.81 781.37 837.71 812.6 783.62 843.83 729.51 875.06 729.51 1124.93 783.62 1156.16 837.71 1187.39 837.71 1187.4 891.81 1218.63 891.81 1530.96 945.9 1562.19 999.99 1593.42 1000.01 1593.42 1054.1 1562.19 1108.19 1530.96 1108.19 1218.63 1162.28 1187.39 1162.29 1187.39 1216.38 1156.16"/>
  <path class="cls-2" d="M621.32,750.12h0s.01.01.01.01l54.09,31.23,54.09,31.23,54.1-31.23,54.09-31.23,54.09-31.23h.01l54.09-31.23,54.09-31.23h.01l54.09,31.23,54.09,31.23,54.1,31.23,54.09,31.23,54.1,31.23,54.09-31.23,54.09-31.23h.01s54.09-31.23,54.09-31.23l54.09-31.23-54.09-31.23h0s-54.09-31.23-54.09-31.23h-.01s-54.09-31.24-54.09-31.24l-54.09-31.22h0s-54.1-31.24-54.1-31.24l-54.09-31.23h-.01l-54.09-31.23-54.09-31.23-54.09-31.23h-.01l-54.09,31.23-54.09,31.23-54.09,31.23h-.01l-54.09,31.23-54.1,31.23h0s-54.09,31.23-54.09,31.23h0s-54.09,31.23-54.09,31.23h-.01s-54.09,31.23-54.09,31.23h0s-54.09,31.24-54.09,31.24l54.09,31.23,54.09,31.22ZM1108.19,656.43h.01-.01s0,0,0,0ZM891.81,656.43h0s-.01,0-.01,0h.01Z"/>
  <path class="cls-2" d="M729.51,1187.4l-54.09-31.23v-312.34l-54.1-31.23-54.09-31.23-54.09-31.23h-.01l-54.09-31.23v562.19l54.09,31.23h.01l54.09,31.23,54.09,31.23h.01l54.09,31.23,54.09,31.23,54.1,31.23h0s54.09,31.24,54.09,31.24v-249.86l-54.09-31.23-54.1-31.23ZM783.62,1343.57h-.01s.01-.01.01-.01h0Z"/>
  <path class="cls-2" d="M1486.87,750.14l-54.09,31.23-54.09,31.23-54.1,31.23v312.34l-54.09,31.23-54.1,31.23-54.09,31.23v249.86l54.09-31.23h0s54.1-31.23,54.1-31.23h0s54.09-31.23,54.09-31.23h0s54.09-31.24,54.09-31.24h.01l54.09-31.23,54.09-31.23,54.1-31.23v-562.19l-54.1,31.23ZM1378.68,1062.48h-.01s.01-.03.01-.03v.03ZM1378.68,1000.01h-.01s.01-.03.01-.03v.03ZM1486.87,875.07h0s.01-.01.01-.01h-.01Z"/>
</svg>