<?xml version="1.0" encoding="UTF-8"?>
<svg id="Layer_1" data-name="Layer 1" xmlns="http://www.w3.org/2000/svg" viewBox="0 0 2000 2000">
  <defs>
    <style>
      .cls-1 {
        fill: #00c853;
      }

      .cls-2 {
        fill: #3f556f;
      }

      .cls-3 {
        fill: #112e4f;
      }
    </style>
  </defs>
  <g>
    <g>
      <path class="cls-3" d="M691.35,751.09h146.54v32.28h-55.95v157.59h-34.65v-157.59h-55.95v-32.28Z"/>
      <path class="cls-3" d="M980.07,763.16c14.2,8.05,25.32,19.3,33.36,33.77,8.04,14.47,12.06,30.83,12.06,49.09s-4.07,34.58-12.19,48.96c-8.13,14.38-19.38,25.63-33.75,33.77-14.37,8.14-30.71,12.21-49.02,12.21h-73.4v-189.87h74.68c17.96,0,34.04,4.03,48.25,12.07ZM962.23,900.95c8.81-5.33,15.69-12.75,20.66-22.24,4.96-9.49,7.44-20.3,7.44-32.41s-2.57-23.01-7.7-32.68c-5.13-9.67-12.19-17.18-21.17-22.51-8.98-5.33-19.04-8-30.15-8h-39.78v125.86h41.06c10.95,0,20.83-2.67,29.64-8Z"/>
      <path class="cls-3" d="M1134.95,786.08c-9.67-3.25-18.18-4.88-25.54-4.88-8.21,0-14.72,1.63-19.5,4.88-4.79,3.25-7.19,7.78-7.19,13.56,0,5.25,1.67,9.63,5,13.15,3.34,3.53,7.53,6.42,12.57,8.68,5.04,2.26,11.93,4.75,20.66,7.46,12.15,3.8,22.11,7.6,29.9,11.39,7.78,3.8,14.41,9.4,19.89,16.82,5.47,7.42,8.21,17.18,8.21,29.29s-2.95,21.66-8.85,30.24c-5.9,8.59-14.03,15.15-24.38,19.67-10.35,4.52-22.2,6.78-35.54,6.78-14.03,0-27.72-2.76-41.06-8.27-13.35-5.51-24.98-12.88-34.9-22.11l14.37-30.92c9.07,8.86,19.25,15.83,30.54,20.88,11.29,5.07,21.81,7.6,31.57,7.6s17.11-1.94,22.58-5.83c5.47-3.89,8.21-9.18,8.21-15.87,0-5.43-1.67-9.9-5-13.43-3.34-3.53-7.57-6.37-12.71-8.54s-12.15-4.61-21.04-7.32c-12.15-3.8-22.07-7.5-29.77-11.12-7.7-3.62-14.29-9.09-19.76-16.41-5.48-7.32-8.21-16.95-8.21-28.89,0-11.03,2.78-20.66,8.34-28.89,5.56-8.23,13.43-14.6,23.61-19.12,10.18-4.52,21.94-6.78,35.29-6.78,11.63,0,23.14,1.81,34.52,5.42,11.38,3.62,21.51,8.5,30.41,14.65l-13.86,31.74c-9.24-5.97-18.7-10.58-28.36-13.83Z"/>
    </g>
    <g>
      <path class="cls-2" d="M778.82,1204.37c2.85,2.23,4.28,5.31,4.28,9.23,0,2.97-.83,5.46-2.48,7.47s-3.96,3.33-6.93,3.95c3.69.48,6.56,1.84,8.62,4.1,2.06,2.25,3.09,5.1,3.09,8.55,0,4.31-1.61,7.66-4.81,10.06-3.21,2.4-7.66,3.59-13.36,3.59h-21.27v-50.29h21.05c5.03,0,8.97,1.11,11.82,3.34ZM775.04,1220.89c1.96-1.56,2.95-3.77,2.95-6.65s-.98-4.93-2.95-6.47c-1.96-1.53-4.72-2.27-8.26-2.23h-15.88v17.67h15.88c3.54,0,6.3-.78,8.26-2.33ZM776.8,1244.32c2.37-1.7,3.56-4.08,3.56-7.15s-1.2-5.36-3.59-7.04c-2.4-1.68-5.72-2.52-9.99-2.52h-15.88v19.26h15.88c4.31,0,7.65-.85,10.02-2.55Z"/>
      <path class="cls-2" d="M829.07,1213.67v37.65h-4.89v-8.98c-1.25,2.97-3.1,5.22-5.57,6.75-2.47,1.53-5.45,2.32-8.94,2.37-4.46,0-7.94-1.3-10.45-3.92-2.51-2.61-3.77-6.19-3.77-10.74v-23.13h4.88v21.98c0,3.55.97,6.31,2.91,8.3,1.94,1.99,4.61,2.98,8.01,2.98,4.02-.05,7.18-1.42,9.48-4.13,2.3-2.71,3.45-6.26,3.45-10.67v-18.46h4.89Z"/>
      <path class="cls-2" d="M847.9,1200.42c.62.65.93,1.45.93,2.41s-.32,1.77-.97,2.44c-.65.67-1.43,1.01-2.33,1.01-.96,0-1.76-.33-2.41-1.01-.65-.67-.97-1.48-.97-2.44s.32-1.76.97-2.41,1.45-.97,2.41-.97,1.75.32,2.37.97ZM843.08,1213.67h4.81v37.65h-4.81v-37.65Z"/>
      <path class="cls-2" d="M862.27,1198.01h4.81v53.31h-4.81v-53.31Z"/>
      <path class="cls-2" d="M900.49,1248.73c-2.59,1.77-5.37,2.71-8.33,2.8-2.87,0-5.15-.89-6.83-2.66-1.68-1.77-2.51-4.43-2.51-7.98v-22.42h-5.39l-.07-3.74h5.46v-9.7h4.81v9.7l12.21-.07v3.81h-12.21v21.63c0,4.65,1.72,6.97,5.17,6.97,1.92,0,4-.67,6.25-2.01l1.44,3.66Z"/>
      <path class="cls-2" d="M943.6,1218.24c-1.77-.5-3.52-.75-5.24-.75-2.4,0-4.32.47-5.78,1.4s-2.19,2.33-2.19,4.2c0,1.29.4,2.35,1.19,3.16.79.82,1.77,1.47,2.95,1.98,1.17.5,2.81,1.07,4.92,1.69,2.59.77,4.69,1.52,6.32,2.26,1.63.74,3.02,1.82,4.17,3.23,1.15,1.41,1.72,3.27,1.72,5.57,0,3.4-1.29,6-3.88,7.79-2.59,1.8-5.82,2.69-9.7,2.69-2.73,0-5.36-.46-7.9-1.37-2.54-.91-4.67-2.2-6.39-3.88l1.94-3.45c1.63,1.49,3.56,2.66,5.78,3.52,2.23.86,4.49,1.29,6.79,1.29,2.54,0,4.61-.53,6.21-1.58,1.6-1.05,2.41-2.59,2.41-4.6,0-1.39-.41-2.53-1.22-3.41-.82-.89-1.83-1.58-3.05-2.08s-2.91-1.09-5.07-1.76c-2.54-.77-4.6-1.51-6.18-2.23-1.58-.72-2.92-1.76-4.02-3.13s-1.65-3.15-1.65-5.35c0-3.3,1.23-5.79,3.7-7.47,2.47-1.68,5.54-2.51,9.23-2.51,2.16,0,4.24.29,6.25.86s3.81,1.37,5.39,2.37l-1.87,3.66c-1.44-.91-3.04-1.62-4.81-2.12Z"/>
      <path class="cls-2" d="M989.22,1219.1c3.06,3.71,4.48,8.71,4.24,14.98h-31.4c.33,4.02,1.82,7.27,4.45,9.74,2.63,2.47,5.89,3.7,9.77,3.7,2.39,0,4.62-.43,6.68-1.29,2.06-.86,3.83-2.08,5.32-3.66l2.73,2.73c-1.82,1.96-4.01,3.48-6.57,4.56-2.56,1.08-5.38,1.62-8.44,1.62-3.64,0-6.87-.8-9.7-2.41-2.83-1.6-5.04-3.84-6.65-6.72-1.61-2.87-2.41-6.15-2.41-9.84s.8-6.91,2.41-9.81c1.6-2.9,3.82-5.15,6.65-6.75s6.01-2.41,9.56-2.41c5.84,0,10.3,1.86,13.36,5.57ZM989.15,1230.34c-.24-3.93-1.54-7.05-3.92-9.38s-5.47-3.49-9.3-3.49-6.95,1.17-9.48,3.52c-2.54,2.35-4,5.46-4.38,9.34h27.09Z"/>
      <path class="cls-2" d="M1018.46,1217.77c-2.68,0-5.1.62-7.26,1.87-2.16,1.25-3.83,2.98-5.03,5.21-1.2,2.23-1.8,4.78-1.8,7.65s.6,5.44,1.8,7.69c1.2,2.25,2.87,4,5.03,5.24,2.15,1.25,4.57,1.87,7.26,1.87,2.44,0,4.68-.43,6.72-1.29,2.04-.86,3.75-2.11,5.14-3.74l2.73,2.87c-1.68,2.01-3.78,3.57-6.32,4.67-2.54,1.1-5.36,1.65-8.48,1.65-3.59,0-6.8-.8-9.63-2.41-2.83-1.6-5.04-3.86-6.64-6.75-1.61-2.9-2.41-6.17-2.41-9.81s.8-6.91,2.41-9.81c1.6-2.9,3.82-5.15,6.64-6.75s6.04-2.41,9.63-2.41c2.92,0,5.59.48,8.01,1.44,2.42.96,4.49,2.3,6.21,4.02l-2.73,3.23c-3.06-2.97-6.82-4.45-11.28-4.45Z"/>
      <path class="cls-2" d="M1076.15,1213.67v37.65h-4.89v-8.98c-1.25,2.97-3.1,5.22-5.57,6.75-2.47,1.53-5.45,2.32-8.94,2.37-4.46,0-7.94-1.3-10.46-3.92-2.51-2.61-3.77-6.19-3.77-10.74v-23.13h4.88v21.98c0,3.55.97,6.31,2.91,8.3,1.94,1.99,4.61,2.98,8.01,2.98,4.02-.05,7.18-1.42,9.48-4.13,2.3-2.71,3.45-6.26,3.45-10.67v-18.46h4.89Z"/>
      <path class="cls-2" d="M1100.33,1215.86c2.32-1.51,5.11-2.29,8.37-2.33v4.53c-3.98-.05-7.17,1.11-9.59,3.48-2.42,2.37-3.79,5.59-4.13,9.66v20.12h-4.81v-37.65h4.81v8.77c1.25-2.88,3.03-5.07,5.35-6.57Z"/>
      <path class="cls-2" d="M1144.48,1219.1c3.06,3.71,4.48,8.71,4.24,14.98h-31.4c.33,4.02,1.82,7.27,4.45,9.74,2.63,2.47,5.89,3.7,9.77,3.7,2.39,0,4.62-.43,6.68-1.29,2.06-.86,3.83-2.08,5.32-3.66l2.73,2.73c-1.82,1.96-4.01,3.48-6.57,4.56-2.56,1.08-5.38,1.62-8.44,1.62-3.64,0-6.87-.8-9.7-2.41-2.83-1.6-5.04-3.84-6.65-6.72-1.61-2.87-2.41-6.15-2.41-9.84s.8-6.91,2.41-9.81c1.61-2.9,3.82-5.15,6.65-6.75s6.01-2.41,9.55-2.41c5.84,0,10.3,1.86,13.37,5.57ZM1144.41,1230.34c-.24-3.93-1.54-7.05-3.92-9.38s-5.47-3.49-9.3-3.49-6.95,1.17-9.48,3.52c-2.54,2.35-4,5.46-4.38,9.34h27.09Z"/>
      <path class="cls-2" d="M1161,1246.29c.62.62.93,1.39.93,2.3s-.31,1.69-.93,2.33c-.62.65-1.39.97-2.3.97s-1.66-.31-2.26-.93-.9-1.41-.9-2.37.3-1.68.9-2.3c.6-.62,1.35-.93,2.26-.93s1.68.31,2.3.93Z"/>
      <path class="cls-2" d="M1226.2,1204.37c2.85,2.23,4.28,5.31,4.28,9.23,0,2.97-.83,5.46-2.48,7.47s-3.96,3.33-6.93,3.95c3.69.48,6.56,1.84,8.62,4.1,2.06,2.25,3.09,5.1,3.09,8.55,0,4.31-1.61,7.66-4.81,10.06-3.21,2.4-7.66,3.59-13.36,3.59h-21.27v-50.29h21.05c5.03,0,8.97,1.11,11.82,3.34ZM1222.43,1220.89c1.96-1.56,2.95-3.77,2.95-6.65s-.98-4.93-2.95-6.47c-1.96-1.53-4.72-2.27-8.26-2.23h-15.88v17.67h15.88c3.54,0,6.3-.78,8.26-2.33ZM1224.19,1244.32c2.37-1.7,3.56-4.08,3.56-7.15s-1.2-5.36-3.59-7.04c-2.4-1.68-5.72-2.52-9.99-2.52h-15.88v19.26h15.88c4.31,0,7.65-.85,10.02-2.55Z"/>
      <path class="cls-2" d="M1276.46,1213.67v37.65h-4.88v-8.98c-1.25,2.97-3.1,5.22-5.57,6.75-2.47,1.53-5.45,2.32-8.95,2.37-4.46,0-7.94-1.3-10.45-3.92-2.52-2.61-3.77-6.19-3.77-10.74v-23.13h4.88v21.98c0,3.55.97,6.31,2.91,8.3,1.94,1.99,4.61,2.98,8.01,2.98,4.02-.05,7.19-1.42,9.48-4.13s3.45-6.26,3.45-10.67v-18.46h4.88Z"/>
      <path class="cls-2" d="M1295.28,1200.42c.62.65.93,1.45.93,2.41s-.32,1.77-.97,2.44c-.65.67-1.43,1.01-2.33,1.01-.96,0-1.76-.33-2.41-1.01-.65-.67-.97-1.48-.97-2.44s.32-1.76.97-2.41,1.45-.97,2.41-.97,1.75.32,2.37.97ZM1290.47,1213.67h4.81v37.65h-4.81v-37.65Z"/>
      <path class="cls-2" d="M1309.65,1198.01h4.81v53.31h-4.81v-53.31Z"/>
      <path class="cls-2" d="M1347.88,1248.73c-2.59,1.77-5.37,2.71-8.33,2.8-2.87,0-5.15-.89-6.83-2.66s-2.51-4.43-2.51-7.98v-22.42h-5.39l-.07-3.74h5.46v-9.7h4.81v9.7l12.21-.07v3.81h-12.21v21.63c0,4.65,1.72,6.97,5.17,6.97,1.92,0,4-.67,6.25-2.01l1.44,3.66Z"/>
      <path class="cls-2" d="M1395.29,1248.73c-2.59,1.77-5.37,2.71-8.33,2.8-2.87,0-5.15-.89-6.83-2.66s-2.51-4.43-2.51-7.98v-22.42h-5.39l-.07-3.74h5.46v-9.7h4.81v9.7l12.21-.07v3.81h-12.21v21.63c0,4.65,1.72,6.97,5.17,6.97,1.92,0,4-.67,6.25-2.01l1.44,3.66Z"/>
      <path class="cls-2" d="M1428.27,1215.94c2.88,1.61,5.12,3.84,6.75,6.72,1.63,2.87,2.44,6.13,2.44,9.77s-.81,6.98-2.44,9.88c-1.63,2.9-3.88,5.15-6.75,6.75-2.87,1.61-6.13,2.41-9.77,2.41s-6.9-.8-9.77-2.41c-2.88-1.6-5.13-3.86-6.75-6.75-1.63-2.9-2.44-6.19-2.44-9.88s.81-6.9,2.44-9.77c1.63-2.87,3.88-5.11,6.75-6.72,2.87-1.61,6.13-2.41,9.77-2.41s6.9.8,9.77,2.41ZM1411.17,1219.56c-2.16,1.25-3.83,2.99-5.03,5.25-1.2,2.25-1.8,4.81-1.8,7.69s.6,5.51,1.8,7.76c1.2,2.25,2.87,4,5.03,5.25,2.15,1.25,4.6,1.87,7.33,1.87s5.17-.62,7.33-1.87c2.15-1.25,3.83-2.99,5.03-5.25,1.2-2.25,1.79-4.84,1.79-7.76s-.6-5.44-1.79-7.69c-1.2-2.25-2.88-4-5.03-5.25-2.16-1.24-4.6-1.87-7.33-1.87s-5.17.62-7.33,1.87Z"/>
      <path class="cls-2" d="M1482.09,1218.24c-1.77-.5-3.52-.75-5.24-.75-2.4,0-4.32.47-5.79,1.4s-2.19,2.33-2.19,4.2c0,1.29.4,2.35,1.19,3.16.79.82,1.77,1.47,2.95,1.98,1.17.5,2.81,1.07,4.92,1.69,2.59.77,4.69,1.52,6.32,2.26,1.63.74,3.02,1.82,4.17,3.23,1.15,1.41,1.72,3.27,1.72,5.57,0,3.4-1.29,6-3.88,7.79-2.59,1.8-5.82,2.69-9.7,2.69-2.73,0-5.36-.46-7.9-1.37-2.54-.91-4.67-2.2-6.39-3.88l1.94-3.45c1.63,1.49,3.56,2.66,5.79,3.52,2.23.86,4.49,1.29,6.79,1.29,2.54,0,4.61-.53,6.21-1.58,1.6-1.05,2.41-2.59,2.41-4.6,0-1.39-.41-2.53-1.22-3.41-.82-.89-1.83-1.58-3.05-2.08-1.22-.5-2.91-1.09-5.06-1.76-2.54-.77-4.6-1.51-6.18-2.23-1.58-.72-2.92-1.76-4.02-3.13s-1.65-3.15-1.65-5.35c0-3.3,1.23-5.79,3.7-7.47,2.47-1.68,5.54-2.51,9.23-2.51,2.15,0,4.24.29,6.25.86s3.81,1.37,5.39,2.37l-1.87,3.66c-1.44-.91-3.04-1.62-4.81-2.12Z"/>
      <path class="cls-2" d="M1514.63,1217.77c-2.68,0-5.1.62-7.26,1.87-2.15,1.25-3.83,2.98-5.03,5.21-1.2,2.23-1.79,4.78-1.79,7.65s.6,5.44,1.79,7.69,2.88,4,5.03,5.24c2.16,1.25,4.57,1.87,7.26,1.87,2.44,0,4.68-.43,6.72-1.29,2.04-.86,3.75-2.11,5.14-3.74l2.73,2.87c-1.68,2.01-3.79,3.57-6.32,4.67-2.54,1.1-5.37,1.65-8.48,1.65-3.59,0-6.8-.8-9.63-2.41-2.83-1.6-5.04-3.86-6.65-6.75-1.61-2.9-2.41-6.17-2.41-9.81s.8-6.91,2.41-9.81c1.61-2.9,3.82-5.15,6.65-6.75s6.04-2.41,9.63-2.41c2.92,0,5.59.48,8.01,1.44,2.42.96,4.49,2.3,6.21,4.02l-2.73,3.23c-3.07-2.97-6.83-4.45-11.28-4.45Z"/>
      <path class="cls-2" d="M1561.4,1251.32l-.07-6.32c-1.48,2.2-3.42,3.84-5.82,4.92-2.4,1.08-5.15,1.62-8.26,1.62-2.54,0-4.78-.49-6.72-1.47-1.94-.98-3.44-2.34-4.49-4.06-1.05-1.72-1.58-3.67-1.58-5.82,0-3.26,1.26-5.82,3.77-7.69,2.51-1.87,5.97-2.8,10.38-2.8h12.65v-2.87c0-2.97-.89-5.27-2.66-6.9-1.77-1.63-4.36-2.44-7.76-2.44-4.02,0-8.07,1.51-12.14,4.53l-2.16-3.3c2.54-1.77,4.96-3.08,7.26-3.92,2.3-.84,4.93-1.26,7.9-1.26,4.55,0,8.07,1.14,10.56,3.41,2.49,2.28,3.76,5.42,3.81,9.45l.07,24.93h-4.74ZM1556.63,1245.18c2.32-1.55,3.89-3.75,4.71-6.57v-5.17h-12.14c-3.31,0-5.82.55-7.54,1.65-1.72,1.1-2.59,2.75-2.59,4.96s.83,4.06,2.48,5.42,3.84,2.05,6.57,2.05c3.35,0,6.19-.78,8.51-2.34Z"/>
      <path class="cls-2" d="M1579.36,1198.01h4.81v53.31h-4.81v-53.31Z"/>
      <path class="cls-2" d="M1626.64,1219.1c3.06,3.71,4.48,8.71,4.24,14.98h-31.4c.33,4.02,1.82,7.27,4.46,9.74,2.63,2.47,5.89,3.7,9.77,3.7,2.39,0,4.62-.43,6.68-1.29,2.06-.86,3.83-2.08,5.32-3.66l2.73,2.73c-1.82,1.96-4.01,3.48-6.57,4.56-2.56,1.08-5.38,1.62-8.44,1.62-3.64,0-6.87-.8-9.7-2.41-2.83-1.6-5.04-3.84-6.64-6.72-1.61-2.87-2.41-6.15-2.41-9.84s.8-6.91,2.41-9.81c1.6-2.9,3.82-5.15,6.64-6.75s6.01-2.41,9.56-2.41c5.84,0,10.3,1.86,13.36,5.57ZM1626.57,1230.34c-.24-3.93-1.54-7.05-3.92-9.38s-5.47-3.49-9.3-3.49-6.95,1.17-9.48,3.52c-2.54,2.35-4,5.46-4.38,9.34h27.09Z"/>
      <path class="cls-2" d="M1643.17,1246.29c.62.62.93,1.39.93,2.3s-.31,1.69-.93,2.33c-.62.65-1.39.97-2.3.97s-1.66-.31-2.26-.93c-.6-.62-.9-1.41-.9-2.37s.3-1.68.9-2.3c.6-.62,1.35-.93,2.26-.93s1.68.31,2.3.93Z"/>
    </g>
    <g>
      <path class="cls-3" d="M747.47,954.75h34.39v189.87h-34.39v-189.87Z"/>
      <path class="cls-3" d="M939.44,1013.2c9.07,10.04,13.6,23.64,13.6,40.82v90.59h-33.62v-80.29c0-10.12-2.74-18.13-8.21-24-5.48-5.87-12.92-8.82-22.33-8.82-11.12.18-19.89,4.16-26.31,11.93-6.42,7.78-9.62,17.72-9.62,29.84v71.34h-33.36v-145.11h33.36v27.12c9.41-18.62,25.83-28.12,49.27-28.48,15.74,0,28.14,5.02,37.21,15.05Z"/>
      <path class="cls-3" d="M1105.22,1013.2c9.07,10.04,13.6,23.64,13.6,40.82v90.59h-33.62v-80.29c0-10.12-2.74-18.13-8.21-24-5.48-5.87-12.92-8.82-22.33-8.82-11.12.18-19.89,4.16-26.3,11.93-6.42,7.78-9.62,17.72-9.62,29.84v71.34h-33.36v-145.11h33.36v27.12c9.41-18.62,25.83-28.12,49.28-28.48,15.74,0,28.14,5.02,37.21,15.05Z"/>
      <path class="cls-3" d="M1248.81,1007.64c10.86,6.15,19.33,14.78,25.41,25.9,6.07,11.12,9.11,23.92,9.11,38.38s-3.04,27.58-9.11,38.79c-6.07,11.21-14.54,19.89-25.41,26.04-10.87,6.15-23.4,9.22-37.6,9.22s-27.04-3.07-37.98-9.22c-10.95-6.15-19.46-14.83-25.54-26.04-6.07-11.21-9.11-24.14-9.11-38.79s3.04-27.26,9.11-38.38c6.07-11.12,14.58-19.75,25.54-25.9,10.95-6.15,23.61-9.22,37.98-9.22s26.73,3.08,37.6,9.22ZM1182.98,1040.73c-7.19,8.14-10.78,18.71-10.78,31.73s3.59,23.6,10.78,31.74c7.19,8.14,16.59,12.21,28.23,12.21s20.53-4.07,27.72-12.21,10.78-18.72,10.78-31.74-3.59-23.6-10.78-31.73c-7.19-8.14-16.42-12.21-27.72-12.21s-21.04,4.07-28.23,12.21Z"/>
      <path class="cls-3" d="M1281.28,999.78l34.9-.27,35.93,110.39,35.16-110.39h33.62l-52.35,145.11h-34.39l-52.87-144.84Z"/>
      <path class="cls-3" d="M1512.25,1144.62v-17.63c-4.79,6.33-10.95,11.12-18.48,14.38-7.53,3.25-16.17,4.88-25.92,4.88s-18.01-1.94-25.28-5.83c-7.28-3.89-12.88-9.26-16.81-16.14-3.94-6.87-5.9-14.55-5.9-23.05,0-13.56,4.53-24.18,13.6-31.87,9.07-7.68,21.9-11.62,38.5-11.8h40.04v-3.8c0-8.5-2.65-15.1-7.96-19.8-5.31-4.7-13.01-7.05-23.1-7.05-13,0-26.61,4.52-40.81,13.56l-12.06-24.41c10.78-6.33,20.57-10.89,29.38-13.7,8.81-2.8,19.12-4.21,30.92-4.21,17.79,0,31.61,4.52,41.45,13.56,9.84,9.04,14.84,21.7,15.01,37.97l.26,94.93h-32.85ZM1500.44,1111.93c6.84-4.79,10.69-10.71,11.55-17.77v-13.02h-34.65c-8.9,0-15.44,1.4-19.63,4.21-4.19,2.8-6.29,7.37-6.29,13.7s2.18,11.03,6.54,14.65c4.36,3.62,10.3,5.43,17.84,5.43,9.58,0,17.79-2.39,24.64-7.19Z"/>
      <path class="cls-3" d="M1657.76,1135.67c-10.95,7.05-22.42,10.58-34.39,10.58s-21.47-3.66-29-10.98c-7.53-7.32-11.29-18.13-11.29-32.41v-71.61h-19.25l-.26-25.77h19.5v-39.87h33.11v39.87h39.27v25.77h-39.27v65.37c0,6.69,1.19,11.44,3.59,14.24,2.39,2.81,5.99,4.2,10.78,4.2,5.13,0,11.63-1.99,19.5-5.97l7.7,26.58Z"/>
      <path class="cls-3" d="M1784.16,1018.22c11.04,13.2,16.55,31.74,16.55,55.6,0,4.7-.09,8.23-.26,10.58h-101.37c2.22,10.31,6.8,18.4,13.73,24.28,6.93,5.88,15.44,8.82,25.54,8.82,7.01,0,13.73-1.4,20.15-4.2,6.42-2.8,12.02-6.82,16.81-12.07l17.96,19.8c-6.85,7.96-15.19,14.1-25.02,18.44-9.84,4.34-20.75,6.51-32.72,6.51-14.03,0-26.39-3.07-37.08-9.22-10.7-6.15-18.95-14.78-24.77-25.9-5.82-11.12-8.73-23.91-8.73-38.38s2.95-27.3,8.86-38.52c5.9-11.21,14.15-19.94,24.77-26.17,10.61-6.24,22.67-9.36,36.19-9.36,21.9,0,38.37,6.6,49.4,19.8ZM1770.17,1060.81c-.35-10.67-3.68-19.17-10.01-25.5-6.33-6.33-14.72-9.49-25.15-9.49-9.75,0-17.92,3.12-24.51,9.36-6.59,6.24-10.65,14.78-12.19,25.63h71.86Z"/>
    </g>
  </g>
  <g>
    <polygon class="cls-1" points="516.96 1065.5 539.65 1052.4 539.65 1052.4 539.65 947.59 516.96 934.49 494.27 921.4 471.58 908.3 448.89 895.2 426.2 882.1 426.2 882.1 403.51 895.2 380.82 908.3 358.13 921.4 335.44 934.49 312.74 947.59 312.74 1052.4 335.44 1065.5 358.13 1078.6 358.13 1078.61 380.82 1091.7 380.82 1222.71 403.51 1235.81 426.2 1248.91 426.2 1248.91 448.89 1235.81 471.58 1222.71 471.58 1091.7 494.27 1078.6 494.27 1078.6 516.96 1065.5"/>
    <path class="cls-3" d="M267.36,895.19h0s0,0,0,0l22.69,13.1,22.69,13.1,22.69-13.1,22.69-13.1,22.69-13.1h0l22.69-13.1,22.69-13.1h0l22.69,13.1,22.69,13.1,22.69,13.1,22.69,13.1,22.69,13.1,22.69-13.1,22.69-13.1h0s22.69-13.1,22.69-13.1l22.69-13.1-22.69-13.1h0s-22.69-13.1-22.69-13.1h0s-22.69-13.11-22.69-13.11l-22.69-13.09h0s-22.69-13.11-22.69-13.11l-22.69-13.1h0l-22.69-13.1-22.69-13.1-22.69-13.1h0l-22.69,13.1-22.69,13.1-22.69,13.1h0l-22.69,13.1-22.69,13.1h0s-22.69,13.1-22.69,13.1h0s-22.69,13.1-22.69,13.1h0s-22.69,13.1-22.69,13.1h0s-22.69,13.11-22.69,13.11l22.69,13.1,22.69,13.09ZM471.58,855.89h0,0s0,0,0,0ZM380.82,855.89h0s0,0,0,0h0Z"/>
    <path class="cls-3" d="M312.74,1078.61l-22.69-13.1v-131.01l-22.69-13.1-22.69-13.1-22.69-13.1h0l-22.69-13.1v235.81l22.69,13.1h0l22.69,13.1,22.69,13.1h0l22.69,13.1,22.69,13.1,22.69,13.1h0s22.69,13.11,22.69,13.11v-104.8l-22.69-13.1-22.69-13.1ZM335.44,1144.11h0s0,0,0,0h0Z"/>
    <path class="cls-3" d="M630.41,895.2l-22.69,13.1-22.69,13.1-22.69,13.1v131.01l-22.69,13.1-22.69,13.1-22.69,13.1v104.8l22.69-13.1h0s22.69-13.1,22.69-13.1h0s22.69-13.1,22.69-13.1h0s22.69-13.11,22.69-13.11h0l22.69-13.1,22.69-13.1,22.69-13.1v-235.81l-22.69,13.1ZM585.04,1026.21h0s0-.01,0-.01h0ZM585.04,1000.01h0s0-.01,0-.01h0ZM630.41,947.6h0s0,0,0,0h0Z"/>
  </g>
</svg>